<svg width="24" height="15" viewBox="0 0 24 15" fill="none" xmlns="http://www.w3.org/2000/svg">
<path d="M23.29 7.15989C22.3737 5.00929 20.8035 3.20179 18.8021 1.99379C16.8008 0.785795 14.4698 0.238627 12.14 0.429898C9.80877 0.23799 7.47628 0.78477 5.47321 1.99272C3.47013 3.20067 1.89811 5.00849 0.980003 7.15989L0.75 7.6699L0.980003 8.1799C1.89506 10.3314 3.465 12.1398 5.46667 13.348C7.46835 14.5562 9.79993 15.1027 12.13 14.9099C14.4617 15.1049 16.7955 14.5594 18.7992 13.3511C20.8029 12.1428 22.3744 10.3332 23.29 8.1799L23.51 7.6699L23.29 7.15989ZM12.14 13.0099C11.0834 13.0119 10.05 12.7004 9.17053 12.1148C8.29106 11.5292 7.60506 10.6959 7.19936 9.72036C6.79365 8.74478 6.68647 7.67078 6.89139 6.63426C7.0963 5.59774 7.6041 4.64531 8.35051 3.8975C9.09692 3.14968 10.0484 2.6401 11.0845 2.43325C12.1207 2.22639 13.1949 2.33156 14.1712 2.73543C15.1476 3.13931 15.9821 3.82374 16.5694 4.70212C17.1566 5.58049 17.47 6.61332 17.47 7.6699C17.47 9.08442 16.9088 10.4412 15.9095 11.4423C14.9102 12.4435 13.5545 13.0073 12.14 13.0099Z" fill="#B3B3B3"/>
</svg>
