<svg width="26" height="27" viewBox="0 0 26 27" fill="none" xmlns="http://www.w3.org/2000/svg">
	<path d="M16.8801 20.75C16.9074 21.3008 16.8226 21.8514 16.6306 22.3684C16.4387 22.8853 16.1437 23.3579 15.7635 23.7574C15.3834 24.1569 14.9259 24.4749 14.4191 24.6923C13.9122 24.9096 13.3665 25.0217 12.8151 25.0217C12.2636 25.0217 11.7179 24.9096 11.2111 24.6923C10.7042 24.4749 10.2469 24.1569 9.86669 23.7574C9.48654 23.3579 9.19158 22.8853 8.99963 22.3684C8.80768 21.8514 8.72279 21.3008 8.75012 20.75H16.8801Z" stroke="#FBB03B" stroke-width="2" stroke-miterlimit="10" />
	<path d="M23.4901 20.7501H2.15009C1.97552 20.751 1.80408 20.7033 1.6551 20.6123C1.50611 20.5213 1.38549 20.3906 1.30659 20.2349C1.22768 20.0792 1.19369 19.9046 1.20844 19.7306C1.2232 19.5567 1.28608 19.3903 1.39008 19.2501L4.62006 14.9501V9.53005C4.6199 8.44133 4.83658 7.36348 5.25739 6.35937C5.67821 5.35526 6.29478 4.44501 7.07111 3.68171C7.84744 2.91841 8.76791 2.31735 9.779 1.91359C10.7901 1.50984 11.8715 1.31146 12.96 1.33005C15.1379 1.42087 17.195 2.3557 18.6956 3.93661C20.1963 5.51753 21.0227 7.62043 21.0001 9.80005V15.0001L24.21 19.3001C24.3023 19.4364 24.3568 19.5948 24.3679 19.759C24.3789 19.9233 24.3461 20.0876 24.2729 20.235C24.1997 20.3825 24.0887 20.5078 23.9511 20.5983C23.8136 20.6888 23.6545 20.7412 23.4901 20.7501Z" stroke="#FBB03B" stroke-width="2" stroke-miterlimit="10" />
</svg>
