<svg width="15" height="16" viewBox="0 0 15 16" fill="none" xmlns="http://www.w3.org/2000/svg">
	<path d="M14.59 9.41005V6.22005H13.13C13.0125 5.7286 12.8167 5.25927 12.55 4.83005L13.55 3.83005L11.29 1.57005L10.29 2.57005C9.85214 2.32313 9.38521 2.13166 8.90002 2.00005V0.550049H5.70996V2.00005C5.21634 2.1254 4.7421 2.31715 4.30005 2.57005L3.30005 1.57005L1 3.80005L2 4.80005C1.74897 5.23594 1.55733 5.70341 1.43005 6.19005H0V9.38005H1.45996C1.58724 9.86669 1.779 10.3342 2.03003 10.7701L1.03003 11.7701L3.28003 14.0201L4.28003 13.0201C4.71943 13.2711 5.19023 13.4628 5.68005 13.59V15.05H8.87V13.59C9.35518 13.4584 9.82211 13.267 10.26 13.0201L11.26 14.0201L13.52 11.7701L12.52 10.7701C12.7867 10.3408 12.9825 9.8715 13.1 9.38005L14.59 9.41005ZM4.17004 7.82005C4.16807 7.19619 4.35129 6.58579 4.69666 6.06625C5.04202 5.5467 5.53387 5.14141 6.10986 4.90176C6.68586 4.6621 7.32016 4.59888 7.93213 4.7201C8.5441 4.84132 9.10623 5.14154 9.54736 5.58267C9.9885 6.02381 10.2887 6.586 10.4099 7.19798C10.5311 7.80995 10.4679 8.44413 10.2283 9.02013C9.98862 9.59612 9.58339 10.088 9.06384 10.4333C8.5443 10.7787 7.93392 10.962 7.31006 10.9601C6.47809 10.9574 5.68094 10.6257 5.09265 10.0374C4.50436 9.44915 4.17268 8.65201 4.17004 7.82005V7.82005Z" fill="#B3B3B3" />
</svg>
